<mxfile host="app.diagrams.net" agent="Mozilla/5.0 (Windows NT 10.0; Win64; x64) AppleWebKit/537.36 (KHTML, like Gecko) Chrome/128.0.0.0 Safari/537.36" version="24.7.16">
  <diagram name="Page-1" id="3yuMxZYy2RwhIkGAXB6U">
    <mxGraphModel dx="3112" dy="2569" grid="1" gridSize="10" guides="1" tooltips="1" connect="1" arrows="1" fold="1" page="1" pageScale="1" pageWidth="850" pageHeight="1100" math="0" shadow="0">
      <root>
        <mxCell id="0" />
        <mxCell id="1" parent="0" />
        <mxCell id="aEt6CGPvdNkONzkS4FdT-1" value="&lt;b&gt;R.C.&lt;/b&gt;&lt;div&gt;&lt;b&gt;93 y/o F&lt;/b&gt;&lt;/div&gt;&lt;div&gt;&lt;b&gt;FULL CODE&lt;/b&gt;&lt;/div&gt;&lt;div&gt;&lt;b&gt;Admitted: 09/13/24&lt;/b&gt;&lt;/div&gt;" style="shape=step;perimeter=stepPerimeter;whiteSpace=wrap;html=1;fixedSize=1;" vertex="1" parent="1">
          <mxGeometry x="-600" y="-100" width="140" height="100" as="geometry" />
        </mxCell>
        <mxCell id="aEt6CGPvdNkONzkS4FdT-202" value="" style="edgeStyle=orthogonalEdgeStyle;rounded=0;orthogonalLoop=1;jettySize=auto;html=1;" edge="1" parent="1" source="aEt6CGPvdNkONzkS4FdT-2" target="aEt6CGPvdNkONzkS4FdT-193">
          <mxGeometry relative="1" as="geometry" />
        </mxCell>
        <mxCell id="aEt6CGPvdNkONzkS4FdT-210" value="" style="edgeStyle=orthogonalEdgeStyle;rounded=0;orthogonalLoop=1;jettySize=auto;html=1;" edge="1" parent="1" source="aEt6CGPvdNkONzkS4FdT-2" target="aEt6CGPvdNkONzkS4FdT-209">
          <mxGeometry relative="1" as="geometry" />
        </mxCell>
        <mxCell id="aEt6CGPvdNkONzkS4FdT-2" value="PLEURAL EFFUSION" style="rounded=0;whiteSpace=wrap;html=1;" vertex="1" parent="1">
          <mxGeometry x="660" y="-10" width="120" height="60" as="geometry" />
        </mxCell>
        <mxCell id="aEt6CGPvdNkONzkS4FdT-3" value="Risk Factors" style="rounded=0;whiteSpace=wrap;html=1;fillColor=#3399FF;" vertex="1" parent="1">
          <mxGeometry x="-590" y="10" width="120" height="40" as="geometry" />
        </mxCell>
        <mxCell id="aEt6CGPvdNkONzkS4FdT-4" value="Pathophysiology" style="rounded=0;whiteSpace=wrap;html=1;fillColor=#B9E0A5;" vertex="1" parent="1">
          <mxGeometry x="-590" y="60" width="120" height="40" as="geometry" />
        </mxCell>
        <mxCell id="aEt6CGPvdNkONzkS4FdT-5" value="Signs/Symptoms" style="rounded=0;whiteSpace=wrap;html=1;fillColor=#F19C99;" vertex="1" parent="1">
          <mxGeometry x="-590" y="162.5" width="120" height="40" as="geometry" />
        </mxCell>
        <mxCell id="aEt6CGPvdNkONzkS4FdT-6" value="Diagnosis" style="rounded=0;whiteSpace=wrap;html=1;" vertex="1" parent="1">
          <mxGeometry x="-590" y="110" width="120" height="40" as="geometry" />
        </mxCell>
        <mxCell id="aEt6CGPvdNkONzkS4FdT-7" value="Medications" style="rounded=0;whiteSpace=wrap;html=1;fillColor=#B266FF;" vertex="1" parent="1">
          <mxGeometry x="-590" y="210" width="120" height="40" as="geometry" />
        </mxCell>
        <mxCell id="aEt6CGPvdNkONzkS4FdT-8" value="Potential Complications" style="rounded=0;whiteSpace=wrap;html=1;fillColor=#FFCCFF;" vertex="1" parent="1">
          <mxGeometry x="-590" y="260" width="120" height="40" as="geometry" />
        </mxCell>
        <mxCell id="aEt6CGPvdNkONzkS4FdT-9" value="Nursing Problem Statement" style="rounded=0;whiteSpace=wrap;html=1;fillColor=#006600;" vertex="1" parent="1">
          <mxGeometry x="-590" y="360" width="120" height="40" as="geometry" />
        </mxCell>
        <mxCell id="aEt6CGPvdNkONzkS4FdT-10" value="&lt;b style=&quot;background-color: rgb(255, 255, 51);&quot;&gt;Heart failure&lt;/b&gt;&lt;div&gt;(Cleveland Clinic)&lt;br&gt;&lt;/div&gt;" style="rounded=1;whiteSpace=wrap;html=1;fillColor=#3399FF;" vertex="1" parent="1">
          <mxGeometry x="260" y="-80" width="120" height="60" as="geometry" />
        </mxCell>
        <mxCell id="aEt6CGPvdNkONzkS4FdT-109" value="" style="edgeStyle=orthogonalEdgeStyle;rounded=0;orthogonalLoop=1;jettySize=auto;html=1;" edge="1" parent="1" source="aEt6CGPvdNkONzkS4FdT-11" target="aEt6CGPvdNkONzkS4FdT-64">
          <mxGeometry relative="1" as="geometry" />
        </mxCell>
        <mxCell id="aEt6CGPvdNkONzkS4FdT-11" value="transudate&lt;div&gt;(Rogers, 2023, pg. 1160)&lt;br&gt;&lt;/div&gt;" style="rounded=1;whiteSpace=wrap;html=1;fillColor=#B9E0A5;" vertex="1" parent="1">
          <mxGeometry x="370" y="60" width="120" height="60" as="geometry" />
        </mxCell>
        <mxCell id="aEt6CGPvdNkONzkS4FdT-111" value="" style="edgeStyle=orthogonalEdgeStyle;rounded=0;orthogonalLoop=1;jettySize=auto;html=1;" edge="1" parent="1" source="aEt6CGPvdNkONzkS4FdT-12" target="aEt6CGPvdNkONzkS4FdT-66">
          <mxGeometry relative="1" as="geometry" />
        </mxCell>
        <mxCell id="aEt6CGPvdNkONzkS4FdT-12" value="exudate&lt;div&gt;(Rogers, 2023, pg. 1160)&lt;br&gt;&lt;/div&gt;" style="rounded=1;whiteSpace=wrap;html=1;fillColor=#B9E0A5;" vertex="1" parent="1">
          <mxGeometry x="940" y="60" width="120" height="60" as="geometry" />
        </mxCell>
        <mxCell id="aEt6CGPvdNkONzkS4FdT-114" value="" style="edgeStyle=orthogonalEdgeStyle;rounded=0;orthogonalLoop=1;jettySize=auto;html=1;" edge="1" parent="1" source="aEt6CGPvdNkONzkS4FdT-13" target="aEt6CGPvdNkONzkS4FdT-69">
          <mxGeometry relative="1" as="geometry" />
        </mxCell>
        <mxCell id="aEt6CGPvdNkONzkS4FdT-13" value="pus / empyema&lt;div&gt;(Rogers, 2023, pg. 1160)&lt;br&gt;&lt;/div&gt;" style="rounded=1;whiteSpace=wrap;html=1;fillColor=#B9E0A5;" vertex="1" parent="1">
          <mxGeometry x="660" y="60" width="120" height="60" as="geometry" />
        </mxCell>
        <mxCell id="aEt6CGPvdNkONzkS4FdT-116" value="" style="edgeStyle=orthogonalEdgeStyle;rounded=0;orthogonalLoop=1;jettySize=auto;html=1;" edge="1" parent="1" source="aEt6CGPvdNkONzkS4FdT-14" target="aEt6CGPvdNkONzkS4FdT-71">
          <mxGeometry relative="1" as="geometry" />
        </mxCell>
        <mxCell id="aEt6CGPvdNkONzkS4FdT-14" value="blood / hemothorax&lt;div&gt;(Rogers, 2023, pg. 1160)&lt;br&gt;&lt;/div&gt;" style="rounded=1;whiteSpace=wrap;html=1;fillColor=#B9E0A5;" vertex="1" parent="1">
          <mxGeometry x="800" y="60" width="120" height="60" as="geometry" />
        </mxCell>
        <mxCell id="aEt6CGPvdNkONzkS4FdT-118" value="" style="edgeStyle=orthogonalEdgeStyle;rounded=0;orthogonalLoop=1;jettySize=auto;html=1;" edge="1" parent="1" source="aEt6CGPvdNkONzkS4FdT-15" target="aEt6CGPvdNkONzkS4FdT-73">
          <mxGeometry relative="1" as="geometry" />
        </mxCell>
        <mxCell id="aEt6CGPvdNkONzkS4FdT-15" value="chyle / chylothorax&lt;div&gt;(Rogers, 2023, pg. 1160)&lt;br&gt;&lt;/div&gt;" style="rounded=1;whiteSpace=wrap;html=1;fillColor=#B9E0A5;" vertex="1" parent="1">
          <mxGeometry x="510" y="60" width="120" height="60" as="geometry" />
        </mxCell>
        <mxCell id="aEt6CGPvdNkONzkS4FdT-16" value="Cirrhosis&amp;nbsp;&lt;div&gt;(Cleveland Clinic)&lt;br&gt;&lt;/div&gt;" style="rounded=1;whiteSpace=wrap;html=1;fillColor=#3399FF;" vertex="1" parent="1">
          <mxGeometry x="380" y="-80" width="120" height="60" as="geometry" />
        </mxCell>
        <mxCell id="aEt6CGPvdNkONzkS4FdT-17" value="Nephrotic Syndrome&lt;div&gt;(Cleveland Clinic)&lt;br&gt;&lt;/div&gt;" style="rounded=1;whiteSpace=wrap;html=1;fillColor=#3399FF;" vertex="1" parent="1">
          <mxGeometry x="500" y="-80" width="120" height="60" as="geometry" />
        </mxCell>
        <mxCell id="aEt6CGPvdNkONzkS4FdT-18" value="PNA&lt;div&gt;(Cleveland Clinic)&lt;br&gt;&lt;/div&gt;" style="rounded=1;whiteSpace=wrap;html=1;fillColor=#3399FF;" vertex="1" parent="1">
          <mxGeometry x="620" y="-80" width="120" height="60" as="geometry" />
        </mxCell>
        <mxCell id="aEt6CGPvdNkONzkS4FdT-19" value="&lt;b style=&quot;background-color: rgb(255, 255, 51);&quot;&gt;Cancer&amp;nbsp;&lt;/b&gt;&lt;div&gt;&lt;b style=&quot;background-color: rgb(255, 255, 51);&quot;&gt;(Lung, Breast, Lymphoma)&lt;/b&gt;&lt;/div&gt;&lt;div&gt;(Cleveland Clinic)&lt;br&gt;&lt;/div&gt;" style="rounded=1;whiteSpace=wrap;html=1;fillColor=#3399FF;" vertex="1" parent="1">
          <mxGeometry x="740" y="-80" width="120" height="60" as="geometry" />
        </mxCell>
        <mxCell id="aEt6CGPvdNkONzkS4FdT-20" value="Renal Disease&lt;div&gt;(Cleveland Clinic)&lt;br&gt;&lt;/div&gt;" style="rounded=1;whiteSpace=wrap;html=1;fillColor=#3399FF;" vertex="1" parent="1">
          <mxGeometry x="860" y="-80" width="120" height="60" as="geometry" />
        </mxCell>
        <mxCell id="aEt6CGPvdNkONzkS4FdT-21" value="Inflammatory Disease&lt;div&gt;(Cleveland Clinic)&lt;br&gt;&lt;/div&gt;" style="rounded=1;whiteSpace=wrap;html=1;fillColor=#3399FF;" vertex="1" parent="1">
          <mxGeometry x="980" y="-80" width="120" height="60" as="geometry" />
        </mxCell>
        <mxCell id="aEt6CGPvdNkONzkS4FdT-22" value="Tobacco usage&lt;div&gt;(Cleveland Clinic)&lt;/div&gt;" style="rounded=1;whiteSpace=wrap;html=1;fillColor=#3399FF;" vertex="1" parent="1">
          <mxGeometry x="1100" y="-80" width="120" height="60" as="geometry" />
        </mxCell>
        <mxCell id="aEt6CGPvdNkONzkS4FdT-23" value="Exposure to asbestos&lt;div&gt;(Cleveland Clinic)&lt;br&gt;&lt;/div&gt;" style="rounded=1;whiteSpace=wrap;html=1;fillColor=#3399FF;" vertex="1" parent="1">
          <mxGeometry x="1220" y="-80" width="120" height="60" as="geometry" />
        </mxCell>
        <mxCell id="aEt6CGPvdNkONzkS4FdT-125" value="" style="edgeStyle=orthogonalEdgeStyle;rounded=0;orthogonalLoop=1;jettySize=auto;html=1;" edge="1" parent="1" source="aEt6CGPvdNkONzkS4FdT-26" target="aEt6CGPvdNkONzkS4FdT-29">
          <mxGeometry relative="1" as="geometry" />
        </mxCell>
        <mxCell id="aEt6CGPvdNkONzkS4FdT-26" value="exposure to carcinogens such as tobacco smoke, air pollution, genetic disposition results in tumor development&lt;div&gt;(Rogers, 2023, pg. 1185)&lt;br&gt;&lt;div&gt;&lt;br&gt;&lt;/div&gt;&lt;/div&gt;" style="rounded=1;whiteSpace=wrap;html=1;fillColor=#B9E0A5;" vertex="1" parent="1">
          <mxGeometry x="1110" y="180" width="120" height="130" as="geometry" />
        </mxCell>
        <mxCell id="aEt6CGPvdNkONzkS4FdT-126" style="edgeStyle=orthogonalEdgeStyle;rounded=0;orthogonalLoop=1;jettySize=auto;html=1;" edge="1" parent="1" source="aEt6CGPvdNkONzkS4FdT-29" target="aEt6CGPvdNkONzkS4FdT-30">
          <mxGeometry relative="1" as="geometry" />
        </mxCell>
        <mxCell id="aEt6CGPvdNkONzkS4FdT-29" value="alteration in cell growth and differentiation due to inflammatory mediators&lt;div&gt;(Rogers, 2023, pg. 1185)&lt;br&gt;&lt;/div&gt;" style="rounded=1;whiteSpace=wrap;html=1;fillColor=#B9E0A5;" vertex="1" parent="1">
          <mxGeometry x="1110" y="340" width="120" height="100" as="geometry" />
        </mxCell>
        <mxCell id="aEt6CGPvdNkONzkS4FdT-127" value="" style="edgeStyle=orthogonalEdgeStyle;rounded=0;orthogonalLoop=1;jettySize=auto;html=1;" edge="1" parent="1" source="aEt6CGPvdNkONzkS4FdT-30" target="aEt6CGPvdNkONzkS4FdT-31">
          <mxGeometry relative="1" as="geometry" />
        </mxCell>
        <mxCell id="aEt6CGPvdNkONzkS4FdT-30" value="cells become metaplasia to carcinoma to invasive carcinoma&amp;nbsp;&lt;div&gt;(Rogers, 2023, pg. 1185)&lt;br&gt;&lt;/div&gt;" style="rounded=1;whiteSpace=wrap;html=1;fillColor=#B9E0A5;" vertex="1" parent="1">
          <mxGeometry x="1110" y="470" width="120" height="90" as="geometry" />
        </mxCell>
        <mxCell id="aEt6CGPvdNkONzkS4FdT-35" value="" style="edgeStyle=orthogonalEdgeStyle;rounded=0;orthogonalLoop=1;jettySize=auto;html=1;" edge="1" parent="1" source="aEt6CGPvdNkONzkS4FdT-31" target="aEt6CGPvdNkONzkS4FdT-34">
          <mxGeometry relative="1" as="geometry" />
        </mxCell>
        <mxCell id="aEt6CGPvdNkONzkS4FdT-31" value="progression of tumor leads to invasion of surrounding tissues, then metastasis&lt;div&gt;(Rogers, 2023, pg. 1185)&lt;br&gt;&lt;/div&gt;" style="rounded=1;whiteSpace=wrap;html=1;fillColor=#B9E0A5;" vertex="1" parent="1">
          <mxGeometry x="1110" y="585" width="120" height="85" as="geometry" />
        </mxCell>
        <mxCell id="aEt6CGPvdNkONzkS4FdT-34" value="s/s: dyspnea, hempphytis, wt loss, fatigue, cough, CP" style="rounded=1;whiteSpace=wrap;html=1;fillColor=#F19C99;" vertex="1" parent="1">
          <mxGeometry x="960" y="597.5" width="120" height="60" as="geometry" />
        </mxCell>
        <mxCell id="aEt6CGPvdNkONzkS4FdT-88" value="" style="edgeStyle=orthogonalEdgeStyle;rounded=0;orthogonalLoop=1;jettySize=auto;html=1;" edge="1" parent="1" source="aEt6CGPvdNkONzkS4FdT-40" target="aEt6CGPvdNkONzkS4FdT-41">
          <mxGeometry relative="1" as="geometry" />
        </mxCell>
        <mxCell id="aEt6CGPvdNkONzkS4FdT-39" value="myocardial dysfunction from HTN, MI, ischemic heart disease and other risk factors cause decrease in cardiac output and in systemic blood pressure&amp;nbsp;&lt;div&gt;(Rogers, 2023, pg. 1096)&lt;/div&gt;" style="rounded=1;whiteSpace=wrap;html=1;fillColor=#B9E0A5;" vertex="1" parent="1">
          <mxGeometry x="-210" y="140" width="120" height="160" as="geometry" />
        </mxCell>
        <mxCell id="aEt6CGPvdNkONzkS4FdT-91" value="" style="edgeStyle=orthogonalEdgeStyle;rounded=0;orthogonalLoop=1;jettySize=auto;html=1;" edge="1" parent="1" source="aEt6CGPvdNkONzkS4FdT-41" target="aEt6CGPvdNkONzkS4FdT-47">
          <mxGeometry relative="1" as="geometry" />
        </mxCell>
        <mxCell id="aEt6CGPvdNkONzkS4FdT-41" value="vasomotor center in medulla activated&lt;div&gt;(Rogers, 2023, pg. 1096)&lt;br&gt;&lt;/div&gt;" style="rounded=1;whiteSpace=wrap;html=1;fillColor=#B9E0A5;" vertex="1" parent="1">
          <mxGeometry x="-210" y="425" width="120" height="60" as="geometry" />
        </mxCell>
        <mxCell id="aEt6CGPvdNkONzkS4FdT-42" value="sympathetic nervous system activated and increase epi and norepi&lt;div&gt;(Rogers, 2023, pg. 1096)&lt;br&gt;&lt;/div&gt;" style="rounded=1;whiteSpace=wrap;html=1;fillColor=#B9E0A5;" vertex="1" parent="1">
          <mxGeometry x="-210" y="500" width="120" height="85" as="geometry" />
        </mxCell>
        <mxCell id="aEt6CGPvdNkONzkS4FdT-93" value="" style="edgeStyle=orthogonalEdgeStyle;rounded=0;orthogonalLoop=1;jettySize=auto;html=1;" edge="1" parent="1" source="aEt6CGPvdNkONzkS4FdT-43" target="aEt6CGPvdNkONzkS4FdT-44">
          <mxGeometry relative="1" as="geometry" />
        </mxCell>
        <mxCell id="aEt6CGPvdNkONzkS4FdT-43" value="&lt;br&gt;&lt;span style=&quot;color: rgb(0, 0, 0); font-family: Helvetica; font-size: 12px; font-style: normal; font-variant-ligatures: normal; font-variant-caps: normal; font-weight: 400; letter-spacing: normal; orphans: 2; text-align: center; text-indent: 0px; text-transform: none; widows: 2; word-spacing: 0px; -webkit-text-stroke-width: 0px; white-space: normal; text-decoration-thickness: initial; text-decoration-style: initial; text-decoration-color: initial; float: none; display: inline !important;&quot;&gt;myocardial dysfunction from HTN, MI, ischemic heart disease and other risk factors cause decrease in kidney perfusion&amp;nbsp;&lt;/span&gt;&lt;div style=&quot;forced-color-adjust: none; color: rgb(0, 0, 0); font-family: Helvetica; font-size: 12px; font-style: normal; font-variant-ligatures: normal; font-variant-caps: normal; font-weight: 400; letter-spacing: normal; orphans: 2; text-align: center; text-indent: 0px; text-transform: none; widows: 2; word-spacing: 0px; -webkit-text-stroke-width: 0px; white-space: normal; text-decoration-thickness: initial; text-decoration-style: initial; text-decoration-color: initial;&quot;&gt;(Rogers, 2023, pg. 1096)&lt;br&gt;&lt;/div&gt;&lt;div&gt;&lt;br&gt;&lt;/div&gt;" style="rounded=1;whiteSpace=wrap;html=1;fillColor=#B9E0A5;" vertex="1" parent="1">
          <mxGeometry x="-87.5" y="140" width="115" height="130" as="geometry" />
        </mxCell>
        <mxCell id="aEt6CGPvdNkONzkS4FdT-95" value="" style="edgeStyle=orthogonalEdgeStyle;rounded=0;orthogonalLoop=1;jettySize=auto;html=1;" edge="1" parent="1" source="aEt6CGPvdNkONzkS4FdT-44" target="aEt6CGPvdNkONzkS4FdT-45">
          <mxGeometry relative="1" as="geometry" />
        </mxCell>
        <mxCell id="aEt6CGPvdNkONzkS4FdT-44" value="renin-angiotensin-aldosterone system activated&lt;div&gt;(Rogers, 2023, pg. 1096)&lt;br&gt;&lt;/div&gt;" style="rounded=1;whiteSpace=wrap;html=1;fillColor=#B9E0A5;" vertex="1" parent="1">
          <mxGeometry x="-80" y="300" width="120" height="70" as="geometry" />
        </mxCell>
        <mxCell id="aEt6CGPvdNkONzkS4FdT-104" style="edgeStyle=orthogonalEdgeStyle;rounded=0;orthogonalLoop=1;jettySize=auto;html=1;exitX=1;exitY=0.25;exitDx=0;exitDy=0;entryX=0;entryY=0.5;entryDx=0;entryDy=0;" edge="1" parent="1" source="aEt6CGPvdNkONzkS4FdT-45" target="aEt6CGPvdNkONzkS4FdT-52">
          <mxGeometry relative="1" as="geometry" />
        </mxCell>
        <mxCell id="aEt6CGPvdNkONzkS4FdT-105" value="" style="edgeStyle=orthogonalEdgeStyle;rounded=0;orthogonalLoop=1;jettySize=auto;html=1;" edge="1" parent="1" source="aEt6CGPvdNkONzkS4FdT-45" target="aEt6CGPvdNkONzkS4FdT-51">
          <mxGeometry relative="1" as="geometry" />
        </mxCell>
        <mxCell id="aEt6CGPvdNkONzkS4FdT-45" value="increase in aldosterone and angiotensin II&lt;div&gt;(Rogers, 2023, pg. 1096)&lt;br&gt;&lt;/div&gt;" style="rounded=1;whiteSpace=wrap;html=1;fillColor=#B9E0A5;" vertex="1" parent="1">
          <mxGeometry x="-80" y="390" width="120" height="80" as="geometry" />
        </mxCell>
        <mxCell id="aEt6CGPvdNkONzkS4FdT-107" value="" style="edgeStyle=orthogonalEdgeStyle;rounded=0;orthogonalLoop=1;jettySize=auto;html=1;" edge="1" parent="1" source="aEt6CGPvdNkONzkS4FdT-46" target="aEt6CGPvdNkONzkS4FdT-53">
          <mxGeometry relative="1" as="geometry" />
        </mxCell>
        <mxCell id="aEt6CGPvdNkONzkS4FdT-46" value="sodium and water retention, presence of cytokines, endothelin, and ADH&lt;div&gt;(Rogers, 2023, pg. 1096)&lt;br&gt;&lt;/div&gt;" style="rounded=1;whiteSpace=wrap;html=1;fillColor=#B9E0A5;" vertex="1" parent="1">
          <mxGeometry x="-80" y="595" width="120" height="90" as="geometry" />
        </mxCell>
        <mxCell id="aEt6CGPvdNkONzkS4FdT-92" value="" style="edgeStyle=orthogonalEdgeStyle;rounded=0;orthogonalLoop=1;jettySize=auto;html=1;" edge="1" parent="1" source="aEt6CGPvdNkONzkS4FdT-47" target="aEt6CGPvdNkONzkS4FdT-48">
          <mxGeometry relative="1" as="geometry" />
        </mxCell>
        <mxCell id="aEt6CGPvdNkONzkS4FdT-47" value="vasoconstriction&lt;div&gt;causing increase in LV afterload, BP, and HR&lt;/div&gt;&lt;div&gt;(Rogers, 2023, pg. 1096)&lt;br&gt;&lt;/div&gt;" style="rounded=1;whiteSpace=wrap;html=1;fillColor=#B9E0A5;" vertex="1" parent="1">
          <mxGeometry x="-210" y="595" width="120" height="90" as="geometry" />
        </mxCell>
        <mxCell id="aEt6CGPvdNkONzkS4FdT-98" value="" style="edgeStyle=orthogonalEdgeStyle;rounded=0;orthogonalLoop=1;jettySize=auto;html=1;" edge="1" parent="1" source="aEt6CGPvdNkONzkS4FdT-48" target="aEt6CGPvdNkONzkS4FdT-49">
          <mxGeometry relative="1" as="geometry" />
        </mxCell>
        <mxCell id="aEt6CGPvdNkONzkS4FdT-48" value="ventricular remodeling due to disruption of normal myocardial structure and progressive contractile dysfunction&lt;div&gt;(Rogers, 2023, pg. 1096)&lt;br&gt;&lt;/div&gt;" style="rounded=1;whiteSpace=wrap;html=1;fillColor=#B9E0A5;" vertex="1" parent="1">
          <mxGeometry x="-210" y="700" width="120" height="130" as="geometry" />
        </mxCell>
        <mxCell id="aEt6CGPvdNkONzkS4FdT-99" value="" style="edgeStyle=orthogonalEdgeStyle;rounded=0;orthogonalLoop=1;jettySize=auto;html=1;" edge="1" parent="1" source="aEt6CGPvdNkONzkS4FdT-49" target="aEt6CGPvdNkONzkS4FdT-50">
          <mxGeometry relative="1" as="geometry" />
        </mxCell>
        <mxCell id="aEt6CGPvdNkONzkS4FdT-128" value="" style="edgeStyle=orthogonalEdgeStyle;rounded=0;orthogonalLoop=1;jettySize=auto;html=1;" edge="1" parent="1" source="aEt6CGPvdNkONzkS4FdT-49" target="aEt6CGPvdNkONzkS4FdT-56">
          <mxGeometry relative="1" as="geometry" />
        </mxCell>
        <mxCell id="aEt6CGPvdNkONzkS4FdT-49" value="hypertrophy and dilation of ventricle, impaired contractility&lt;div&gt;(Rogers, 2023, pg. 1096)&lt;br&gt;&lt;/div&gt;" style="rounded=1;whiteSpace=wrap;html=1;fillColor=#B9E0A5;" vertex="1" parent="1">
          <mxGeometry x="-210" y="845" width="120" height="75" as="geometry" />
        </mxCell>
        <mxCell id="aEt6CGPvdNkONzkS4FdT-141" value="" style="edgeStyle=orthogonalEdgeStyle;rounded=0;orthogonalLoop=1;jettySize=auto;html=1;" edge="1" parent="1" source="aEt6CGPvdNkONzkS4FdT-50" target="aEt6CGPvdNkONzkS4FdT-102">
          <mxGeometry relative="1" as="geometry" />
        </mxCell>
        <mxCell id="aEt6CGPvdNkONzkS4FdT-50" value="decrease cardiac output and perfusion to tissues&amp;nbsp;&lt;div&gt;(Rogers, 2023, pg. 1098)&lt;br&gt;&lt;/div&gt;" style="rounded=1;whiteSpace=wrap;html=1;fillColor=#B9E0A5;" vertex="1" parent="1">
          <mxGeometry x="-210" y="935" width="120" height="70" as="geometry" />
        </mxCell>
        <mxCell id="aEt6CGPvdNkONzkS4FdT-106" value="" style="edgeStyle=orthogonalEdgeStyle;rounded=0;orthogonalLoop=1;jettySize=auto;html=1;" edge="1" parent="1" source="aEt6CGPvdNkONzkS4FdT-51" target="aEt6CGPvdNkONzkS4FdT-46">
          <mxGeometry relative="1" as="geometry" />
        </mxCell>
        <mxCell id="aEt6CGPvdNkONzkS4FdT-51" value="BNP released to improve salt and water excretion, but is not sufficent&lt;div&gt;(Rogers, 2023, pg. 1098)&lt;br&gt;&lt;/div&gt;" style="rounded=1;whiteSpace=wrap;html=1;fillColor=#B9E0A5;" vertex="1" parent="1">
          <mxGeometry x="-80" y="485" width="120" height="90" as="geometry" />
        </mxCell>
        <mxCell id="aEt6CGPvdNkONzkS4FdT-52" value="Ang II and aldosterone contribute to myocyte death and fibrosis&lt;div&gt;(Rogers, 2023, pg. 1098)&lt;br&gt;&lt;/div&gt;" style="rounded=1;whiteSpace=wrap;html=1;fillColor=#B9E0A5;" vertex="1" parent="1">
          <mxGeometry x="80" y="300" width="120" height="90" as="geometry" />
        </mxCell>
        <mxCell id="aEt6CGPvdNkONzkS4FdT-53" value="ADH causes vasoconstriction, fluid retention, and hyponatremia&amp;nbsp;&lt;div&gt;(Rogers, 2023, pg. 1098)&lt;br&gt;&lt;/div&gt;" style="rounded=1;whiteSpace=wrap;html=1;fillColor=#B9E0A5;" vertex="1" parent="1">
          <mxGeometry x="70" y="595" width="120" height="90" as="geometry" />
        </mxCell>
        <mxCell id="aEt6CGPvdNkONzkS4FdT-54" value="dyspnea, orthopnea, cough, fatigue, decreased urine output, edema, crackles, S3 heart sound, pleural effusion&lt;div&gt;&lt;br&gt;&lt;/div&gt;" style="rounded=1;whiteSpace=wrap;html=1;fillColor=#F19C99;" vertex="1" parent="1">
          <mxGeometry x="-450" y="110" width="120" height="110" as="geometry" />
        </mxCell>
        <mxCell id="aEt6CGPvdNkONzkS4FdT-129" value="" style="edgeStyle=orthogonalEdgeStyle;rounded=0;orthogonalLoop=1;jettySize=auto;html=1;" edge="1" parent="1" source="aEt6CGPvdNkONzkS4FdT-56" target="aEt6CGPvdNkONzkS4FdT-57">
          <mxGeometry relative="1" as="geometry" />
        </mxCell>
        <mxCell id="aEt6CGPvdNkONzkS4FdT-56" value="Left heart failure leads to right heart failure&lt;div&gt;(Rogers, 2023, pg. 1100)&lt;br&gt;&lt;/div&gt;" style="rounded=1;whiteSpace=wrap;html=1;fillColor=#B9E0A5;" vertex="1" parent="1">
          <mxGeometry x="-70" y="842.5" width="120" height="77.5" as="geometry" />
        </mxCell>
        <mxCell id="aEt6CGPvdNkONzkS4FdT-130" value="" style="edgeStyle=orthogonalEdgeStyle;rounded=0;orthogonalLoop=1;jettySize=auto;html=1;" edge="1" parent="1" source="aEt6CGPvdNkONzkS4FdT-57" target="aEt6CGPvdNkONzkS4FdT-58">
          <mxGeometry relative="1" as="geometry" />
        </mxCell>
        <mxCell id="aEt6CGPvdNkONzkS4FdT-57" value="inadequate blood flow into pulmonary circulation&amp;nbsp;&lt;div&gt;(Rogers, 2023, pg. 1100)&lt;br&gt;&lt;/div&gt;" style="rounded=1;whiteSpace=wrap;html=1;fillColor=#B9E0A5;" vertex="1" parent="1">
          <mxGeometry x="80" y="842.5" width="120" height="77.5" as="geometry" />
        </mxCell>
        <mxCell id="aEt6CGPvdNkONzkS4FdT-131" value="" style="edgeStyle=orthogonalEdgeStyle;rounded=0;orthogonalLoop=1;jettySize=auto;html=1;" edge="1" parent="1" source="aEt6CGPvdNkONzkS4FdT-58" target="aEt6CGPvdNkONzkS4FdT-59">
          <mxGeometry relative="1" as="geometry" />
        </mxCell>
        <mxCell id="aEt6CGPvdNkONzkS4FdT-58" value="pressure in pulmonary circulation increases causing resistance to emptying of right ventricle&lt;div&gt;(Rogers, 2023, pg. 1100)&lt;br&gt;&lt;/div&gt;" style="rounded=1;whiteSpace=wrap;html=1;fillColor=#B9E0A5;" vertex="1" parent="1">
          <mxGeometry x="220" y="825" width="120" height="115" as="geometry" />
        </mxCell>
        <mxCell id="aEt6CGPvdNkONzkS4FdT-132" value="" style="edgeStyle=orthogonalEdgeStyle;rounded=0;orthogonalLoop=1;jettySize=auto;html=1;" edge="1" parent="1" source="aEt6CGPvdNkONzkS4FdT-59" target="aEt6CGPvdNkONzkS4FdT-61">
          <mxGeometry relative="1" as="geometry" />
        </mxCell>
        <mxCell id="aEt6CGPvdNkONzkS4FdT-59" value="right ventricle can&#39;t compensate for increase afterload&lt;div&gt;(Rogers, 2023, pg. 1100)&lt;br&gt;&lt;/div&gt;" style="rounded=1;whiteSpace=wrap;html=1;fillColor=#B9E0A5;" vertex="1" parent="1">
          <mxGeometry x="370" y="843.75" width="120" height="75" as="geometry" />
        </mxCell>
        <mxCell id="aEt6CGPvdNkONzkS4FdT-61" value="peripheral edema" style="rounded=1;whiteSpace=wrap;html=1;fillColor=#FFCCFF;" vertex="1" parent="1">
          <mxGeometry x="370" y="775" width="120" height="35" as="geometry" />
        </mxCell>
        <mxCell id="aEt6CGPvdNkONzkS4FdT-133" style="edgeStyle=orthogonalEdgeStyle;rounded=0;orthogonalLoop=1;jettySize=auto;html=1;exitX=0.5;exitY=1;exitDx=0;exitDy=0;" edge="1" parent="1" source="aEt6CGPvdNkONzkS4FdT-62">
          <mxGeometry relative="1" as="geometry">
            <mxPoint x="110" y="840" as="targetPoint" />
          </mxGeometry>
        </mxCell>
        <mxCell id="aEt6CGPvdNkONzkS4FdT-62" value="increase in oxygen demand" style="rounded=1;whiteSpace=wrap;html=1;fillColor=#FFCCFF;" vertex="1" parent="1">
          <mxGeometry x="10" y="775" width="120" height="35" as="geometry" />
        </mxCell>
        <mxCell id="aEt6CGPvdNkONzkS4FdT-134" style="edgeStyle=orthogonalEdgeStyle;rounded=0;orthogonalLoop=1;jettySize=auto;html=1;exitX=0.5;exitY=1;exitDx=0;exitDy=0;" edge="1" parent="1" source="aEt6CGPvdNkONzkS4FdT-63">
          <mxGeometry relative="1" as="geometry">
            <mxPoint x="170" y="840" as="targetPoint" />
          </mxGeometry>
        </mxCell>
        <mxCell id="aEt6CGPvdNkONzkS4FdT-63" value="hypoxia&lt;div&gt;&lt;br&gt;&lt;/div&gt;" style="rounded=1;whiteSpace=wrap;html=1;fillColor=#FFCCFF;" vertex="1" parent="1">
          <mxGeometry x="140" y="775" width="120" height="35" as="geometry" />
        </mxCell>
        <mxCell id="aEt6CGPvdNkONzkS4FdT-110" value="" style="edgeStyle=orthogonalEdgeStyle;rounded=0;orthogonalLoop=1;jettySize=auto;html=1;" edge="1" parent="1" source="aEt6CGPvdNkONzkS4FdT-64" target="aEt6CGPvdNkONzkS4FdT-65">
          <mxGeometry relative="1" as="geometry" />
        </mxCell>
        <mxCell id="aEt6CGPvdNkONzkS4FdT-64" value="increase in pulmonary capillary pressure due to CHF, liver and kidney disease, and hypoproteinemia&lt;div&gt;(Rogers, 2023, pg. 1160)&lt;br&gt;&lt;/div&gt;" style="rounded=1;whiteSpace=wrap;html=1;fillColor=#B9E0A5;" vertex="1" parent="1">
          <mxGeometry x="370" y="140" width="120" height="115" as="geometry" />
        </mxCell>
        <mxCell id="aEt6CGPvdNkONzkS4FdT-198" style="edgeStyle=orthogonalEdgeStyle;rounded=0;orthogonalLoop=1;jettySize=auto;html=1;exitX=0.75;exitY=1;exitDx=0;exitDy=0;entryX=0;entryY=0.5;entryDx=0;entryDy=0;" edge="1" parent="1" source="aEt6CGPvdNkONzkS4FdT-65" target="aEt6CGPvdNkONzkS4FdT-172">
          <mxGeometry relative="1" as="geometry" />
        </mxCell>
        <mxCell id="aEt6CGPvdNkONzkS4FdT-65" value="&lt;br&gt;&lt;span style=&quot;color: rgb(0, 0, 0); font-family: Helvetica; font-size: 12px; font-style: normal; font-variant-ligatures: normal; font-variant-caps: normal; font-weight: 400; letter-spacing: normal; orphans: 2; text-align: center; text-indent: 0px; text-transform: none; widows: 2; word-spacing: 0px; -webkit-text-stroke-width: 0px; white-space: normal; text-decoration-thickness: initial; text-decoration-style: initial; text-decoration-color: initial; float: none; display: inline !important;&quot;&gt;causes protein poor and watery fluid to diffuse out of capillaries&lt;/span&gt;&lt;div style=&quot;forced-color-adjust: none; color: rgb(0, 0, 0); font-family: Helvetica; font-size: 12px; font-style: normal; font-variant-ligatures: normal; font-variant-caps: normal; font-weight: 400; letter-spacing: normal; orphans: 2; text-align: center; text-indent: 0px; text-transform: none; widows: 2; word-spacing: 0px; -webkit-text-stroke-width: 0px; white-space: normal; text-decoration-thickness: initial; text-decoration-style: initial; text-decoration-color: initial;&quot;&gt;(Rogers, 2023, pg. 1160)&lt;br&gt;&lt;/div&gt;&lt;div&gt;&lt;br&gt;&lt;/div&gt;" style="rounded=1;whiteSpace=wrap;html=1;fillColor=#B9E0A5;" vertex="1" parent="1">
          <mxGeometry x="370" y="270" width="120" height="100" as="geometry" />
        </mxCell>
        <mxCell id="aEt6CGPvdNkONzkS4FdT-112" value="" style="edgeStyle=orthogonalEdgeStyle;rounded=0;orthogonalLoop=1;jettySize=auto;html=1;" edge="1" parent="1" source="aEt6CGPvdNkONzkS4FdT-66" target="aEt6CGPvdNkONzkS4FdT-68">
          <mxGeometry relative="1" as="geometry" />
        </mxCell>
        <mxCell id="aEt6CGPvdNkONzkS4FdT-66" value="infection, inflammation, or malignancy of pleural&lt;div&gt;from PNA, lung cancer, inflammatory disease&lt;/div&gt;&lt;div&gt;(Rogers, 2023, pg. 1160)&lt;br&gt;&lt;/div&gt;" style="rounded=1;whiteSpace=wrap;html=1;fillColor=#B9E0A5;" vertex="1" parent="1">
          <mxGeometry x="940" y="140" width="120" height="120" as="geometry" />
        </mxCell>
        <mxCell id="aEt6CGPvdNkONzkS4FdT-179" value="" style="edgeStyle=orthogonalEdgeStyle;rounded=0;orthogonalLoop=1;jettySize=auto;html=1;" edge="1" parent="1" source="aEt6CGPvdNkONzkS4FdT-67" target="aEt6CGPvdNkONzkS4FdT-172">
          <mxGeometry relative="1" as="geometry" />
        </mxCell>
        <mxCell id="aEt6CGPvdNkONzkS4FdT-67" value="causes protein rich fluid (leukocytes, plasma proteins) to leak out of capillaries&lt;div&gt;(Rogers, 2023, pg. 1160)&lt;br&gt;&lt;/div&gt;" style="rounded=1;whiteSpace=wrap;html=1;fillColor=#B9E0A5;" vertex="1" parent="1">
          <mxGeometry x="940" y="380" width="120" height="90" as="geometry" />
        </mxCell>
        <mxCell id="aEt6CGPvdNkONzkS4FdT-113" value="" style="edgeStyle=orthogonalEdgeStyle;rounded=0;orthogonalLoop=1;jettySize=auto;html=1;" edge="1" parent="1" source="aEt6CGPvdNkONzkS4FdT-68" target="aEt6CGPvdNkONzkS4FdT-67">
          <mxGeometry relative="1" as="geometry" />
        </mxCell>
        <mxCell id="aEt6CGPvdNkONzkS4FdT-68" value="mast cells are released to increase capillary permeability&amp;nbsp;&lt;div&gt;(Rogers, 2023, pg. 1160)&lt;br&gt;&lt;/div&gt;" style="rounded=1;whiteSpace=wrap;html=1;fillColor=#B9E0A5;" vertex="1" parent="1">
          <mxGeometry x="940" y="280" width="120" height="80" as="geometry" />
        </mxCell>
        <mxCell id="aEt6CGPvdNkONzkS4FdT-115" value="" style="edgeStyle=orthogonalEdgeStyle;rounded=0;orthogonalLoop=1;jettySize=auto;html=1;" edge="1" parent="1" source="aEt6CGPvdNkONzkS4FdT-69" target="aEt6CGPvdNkONzkS4FdT-70">
          <mxGeometry relative="1" as="geometry" />
        </mxCell>
        <mxCell id="aEt6CGPvdNkONzkS4FdT-69" value="pt gets pulmonary infections such as PNA, lung abscess or an infected wounds&lt;div&gt;(Rogers, 2023, pg. 1160)&lt;br&gt;&lt;/div&gt;" style="rounded=1;whiteSpace=wrap;html=1;fillColor=#B9E0A5;" vertex="1" parent="1">
          <mxGeometry x="660" y="140" width="120" height="90" as="geometry" />
        </mxCell>
        <mxCell id="aEt6CGPvdNkONzkS4FdT-70" value="debris in infection accumulate in pleural space&lt;div&gt;(Rogers, 2023, pg. 1160)&lt;br&gt;&lt;/div&gt;" style="rounded=1;whiteSpace=wrap;html=1;fillColor=#B9E0A5;" vertex="1" parent="1">
          <mxGeometry x="660" y="250" width="120" height="70" as="geometry" />
        </mxCell>
        <mxCell id="aEt6CGPvdNkONzkS4FdT-117" value="" style="edgeStyle=orthogonalEdgeStyle;rounded=0;orthogonalLoop=1;jettySize=auto;html=1;" edge="1" parent="1" source="aEt6CGPvdNkONzkS4FdT-71" target="aEt6CGPvdNkONzkS4FdT-72">
          <mxGeometry relative="1" as="geometry" />
        </mxCell>
        <mxCell id="aEt6CGPvdNkONzkS4FdT-71" value="traumatic injury, TB,&amp;nbsp; or surgery occurs and cause damage to blood vessels&lt;div&gt;(Rogers, 2023, pg. 1160)&lt;br&gt;&lt;/div&gt;" style="rounded=1;whiteSpace=wrap;html=1;fillColor=#B9E0A5;" vertex="1" parent="1">
          <mxGeometry x="800" y="137.5" width="120" height="90" as="geometry" />
        </mxCell>
        <mxCell id="aEt6CGPvdNkONzkS4FdT-182" style="edgeStyle=orthogonalEdgeStyle;rounded=0;orthogonalLoop=1;jettySize=auto;html=1;exitX=0.5;exitY=1;exitDx=0;exitDy=0;entryX=1;entryY=0.25;entryDx=0;entryDy=0;" edge="1" parent="1" source="aEt6CGPvdNkONzkS4FdT-72" target="aEt6CGPvdNkONzkS4FdT-172">
          <mxGeometry relative="1" as="geometry" />
        </mxCell>
        <mxCell id="aEt6CGPvdNkONzkS4FdT-72" value="hemorrhage into pleural space&lt;div&gt;(Rogers, 2023, pg. 1160)&lt;br&gt;&lt;/div&gt;" style="rounded=1;whiteSpace=wrap;html=1;fillColor=#B9E0A5;" vertex="1" parent="1">
          <mxGeometry x="800" y="240" width="120" height="60" as="geometry" />
        </mxCell>
        <mxCell id="aEt6CGPvdNkONzkS4FdT-119" value="" style="edgeStyle=orthogonalEdgeStyle;rounded=0;orthogonalLoop=1;jettySize=auto;html=1;" edge="1" parent="1" source="aEt6CGPvdNkONzkS4FdT-73" target="aEt6CGPvdNkONzkS4FdT-74">
          <mxGeometry relative="1" as="geometry" />
        </mxCell>
        <mxCell id="aEt6CGPvdNkONzkS4FdT-73" value="traumatic injury, surgical procedures, infection disrupt lymphatic transport&lt;div&gt;(Rogers, 2023, pg. 1160)&lt;br&gt;&lt;/div&gt;" style="rounded=1;whiteSpace=wrap;html=1;fillColor=#B9E0A5;" vertex="1" parent="1">
          <mxGeometry x="510" y="140" width="120" height="90" as="geometry" />
        </mxCell>
        <mxCell id="aEt6CGPvdNkONzkS4FdT-187" style="edgeStyle=orthogonalEdgeStyle;rounded=0;orthogonalLoop=1;jettySize=auto;html=1;exitX=0.5;exitY=1;exitDx=0;exitDy=0;entryX=0;entryY=0.25;entryDx=0;entryDy=0;" edge="1" parent="1" source="aEt6CGPvdNkONzkS4FdT-74" target="aEt6CGPvdNkONzkS4FdT-172">
          <mxGeometry relative="1" as="geometry" />
        </mxCell>
        <mxCell id="aEt6CGPvdNkONzkS4FdT-74" value="chyle moves from lymphatic vessels into pleural space instead of passing into GI tract&amp;nbsp;&lt;div&gt;(Rogers, 2023, pg. 1160)&lt;br&gt;&lt;/div&gt;" style="rounded=1;whiteSpace=wrap;html=1;fillColor=#B9E0A5;" vertex="1" parent="1">
          <mxGeometry x="510" y="255" width="120" height="100" as="geometry" />
        </mxCell>
        <mxCell id="aEt6CGPvdNkONzkS4FdT-86" style="edgeStyle=orthogonalEdgeStyle;rounded=0;orthogonalLoop=1;jettySize=auto;html=1;exitX=0.5;exitY=1;exitDx=0;exitDy=0;entryX=0.25;entryY=0;entryDx=0;entryDy=0;" edge="1" parent="1" source="aEt6CGPvdNkONzkS4FdT-79" target="aEt6CGPvdNkONzkS4FdT-43">
          <mxGeometry relative="1" as="geometry" />
        </mxCell>
        <mxCell id="aEt6CGPvdNkONzkS4FdT-87" style="edgeStyle=orthogonalEdgeStyle;rounded=0;orthogonalLoop=1;jettySize=auto;html=1;exitX=0.5;exitY=1;exitDx=0;exitDy=0;entryX=0.75;entryY=0;entryDx=0;entryDy=0;" edge="1" parent="1" source="aEt6CGPvdNkONzkS4FdT-79" target="aEt6CGPvdNkONzkS4FdT-39">
          <mxGeometry relative="1" as="geometry" />
        </mxCell>
        <mxCell id="aEt6CGPvdNkONzkS4FdT-108" style="edgeStyle=orthogonalEdgeStyle;rounded=0;orthogonalLoop=1;jettySize=auto;html=1;exitX=1;exitY=0.5;exitDx=0;exitDy=0;entryX=0;entryY=0.5;entryDx=0;entryDy=0;" edge="1" parent="1" source="aEt6CGPvdNkONzkS4FdT-79" target="aEt6CGPvdNkONzkS4FdT-11">
          <mxGeometry relative="1" as="geometry" />
        </mxCell>
        <mxCell id="aEt6CGPvdNkONzkS4FdT-165" style="edgeStyle=orthogonalEdgeStyle;rounded=0;orthogonalLoop=1;jettySize=auto;html=1;exitX=1;exitY=0.75;exitDx=0;exitDy=0;" edge="1" parent="1" source="aEt6CGPvdNkONzkS4FdT-79" target="aEt6CGPvdNkONzkS4FdT-143">
          <mxGeometry relative="1" as="geometry" />
        </mxCell>
        <mxCell id="aEt6CGPvdNkONzkS4FdT-170" style="edgeStyle=orthogonalEdgeStyle;rounded=0;orthogonalLoop=1;jettySize=auto;html=1;exitX=0;exitY=0.75;exitDx=0;exitDy=0;entryX=1;entryY=0.5;entryDx=0;entryDy=0;" edge="1" parent="1" source="aEt6CGPvdNkONzkS4FdT-79" target="aEt6CGPvdNkONzkS4FdT-144">
          <mxGeometry relative="1" as="geometry" />
        </mxCell>
        <mxCell id="aEt6CGPvdNkONzkS4FdT-79" value="CHF" style="rounded=0;whiteSpace=wrap;html=1;" vertex="1" parent="1">
          <mxGeometry x="-150" y="60" width="120" height="60" as="geometry" />
        </mxCell>
        <mxCell id="aEt6CGPvdNkONzkS4FdT-80" value="&lt;b style=&quot;background-color: rgb(255, 255, 51);&quot;&gt;HTN&lt;/b&gt;&lt;div&gt;(Rogers, 2023, pg. 1096)&lt;br&gt;&lt;/div&gt;" style="rounded=1;whiteSpace=wrap;html=1;fillColor=#3399FF;" vertex="1" parent="1">
          <mxGeometry x="-400" y="-10" width="120" height="60" as="geometry" />
        </mxCell>
        <mxCell id="aEt6CGPvdNkONzkS4FdT-81" value="Ischemic Heart Disease&lt;div&gt;(Rogers, 2023, pg. 1096)&lt;br&gt;&lt;/div&gt;" style="rounded=1;whiteSpace=wrap;html=1;fillColor=#3399FF;" vertex="1" parent="1">
          <mxGeometry x="-280" y="-10" width="120" height="60" as="geometry" />
        </mxCell>
        <mxCell id="aEt6CGPvdNkONzkS4FdT-82" value="Diabetes&lt;div&gt;(Rogers, 2023, pg. 1096)&lt;br&gt;&lt;/div&gt;" style="rounded=1;whiteSpace=wrap;html=1;fillColor=#3399FF;" vertex="1" parent="1">
          <mxGeometry x="-160" y="-10" width="120" height="60" as="geometry" />
        </mxCell>
        <mxCell id="aEt6CGPvdNkONzkS4FdT-83" value="MI&lt;div&gt;(Rogers, 2023, pg. 1096)&lt;br&gt;&lt;/div&gt;" style="rounded=1;whiteSpace=wrap;html=1;fillColor=#3399FF;" vertex="1" parent="1">
          <mxGeometry x="-40" y="-10" width="120" height="60" as="geometry" />
        </mxCell>
        <mxCell id="aEt6CGPvdNkONzkS4FdT-84" value="&lt;b style=&quot;background-color: rgb(255, 255, 51);&quot;&gt;Older Age&lt;/b&gt;&lt;div&gt;(Rogers, 2023, pg. 1096)&lt;br&gt;&lt;/div&gt;" style="rounded=1;whiteSpace=wrap;html=1;fillColor=#3399FF;" vertex="1" parent="1">
          <mxGeometry x="80" y="-10" width="120" height="60" as="geometry" />
        </mxCell>
        <mxCell id="aEt6CGPvdNkONzkS4FdT-89" value="" style="edgeStyle=orthogonalEdgeStyle;rounded=0;orthogonalLoop=1;jettySize=auto;html=1;" edge="1" parent="1" source="aEt6CGPvdNkONzkS4FdT-39" target="aEt6CGPvdNkONzkS4FdT-40">
          <mxGeometry relative="1" as="geometry">
            <mxPoint x="-150" y="300" as="sourcePoint" />
            <mxPoint x="-160" y="400" as="targetPoint" />
          </mxGeometry>
        </mxCell>
        <mxCell id="aEt6CGPvdNkONzkS4FdT-40" value="baroreceptors are activated in the LV, aortic arch, and carotid sinus&lt;div&gt;(Rogers, 2023, pg. 1096)&lt;br&gt;&lt;/div&gt;" style="rounded=1;whiteSpace=wrap;html=1;fillColor=#B9E0A5;" vertex="1" parent="1">
          <mxGeometry x="-210" y="320" width="120" height="90" as="geometry" />
        </mxCell>
        <mxCell id="aEt6CGPvdNkONzkS4FdT-101" value="EF: 20-25%&lt;div&gt;09/14/24&lt;/div&gt;" style="rounded=1;whiteSpace=wrap;html=1;fillColor=#FF9933;" vertex="1" parent="1">
          <mxGeometry x="-410" y="255" width="120" height="60" as="geometry" />
        </mxCell>
        <mxCell id="aEt6CGPvdNkONzkS4FdT-142" value="" style="edgeStyle=orthogonalEdgeStyle;rounded=0;orthogonalLoop=1;jettySize=auto;html=1;" edge="1" parent="1" source="aEt6CGPvdNkONzkS4FdT-102" target="aEt6CGPvdNkONzkS4FdT-103">
          <mxGeometry relative="1" as="geometry" />
        </mxCell>
        <mxCell id="aEt6CGPvdNkONzkS4FdT-212" style="edgeStyle=orthogonalEdgeStyle;rounded=0;orthogonalLoop=1;jettySize=auto;html=1;exitX=0;exitY=0.5;exitDx=0;exitDy=0;entryX=0.5;entryY=1;entryDx=0;entryDy=0;" edge="1" parent="1" source="aEt6CGPvdNkONzkS4FdT-102" target="aEt6CGPvdNkONzkS4FdT-207">
          <mxGeometry relative="1" as="geometry" />
        </mxCell>
        <mxCell id="aEt6CGPvdNkONzkS4FdT-102" value="BP: 94/62" style="rounded=1;whiteSpace=wrap;html=1;fillColor=#F19C99;" vertex="1" parent="1">
          <mxGeometry x="-360" y="950" width="120" height="40" as="geometry" />
        </mxCell>
        <mxCell id="aEt6CGPvdNkONzkS4FdT-103" value="1000mL NS @ 75mL.hr with 25g of albumin IVPB given" style="rounded=1;whiteSpace=wrap;html=1;fillColor=#B266FF;" vertex="1" parent="1">
          <mxGeometry x="-360" y="860" width="120" height="60" as="geometry" />
        </mxCell>
        <mxCell id="aEt6CGPvdNkONzkS4FdT-123" style="edgeStyle=orthogonalEdgeStyle;rounded=0;orthogonalLoop=1;jettySize=auto;html=1;exitX=0;exitY=0.5;exitDx=0;exitDy=0;entryX=1;entryY=0.5;entryDx=0;entryDy=0;" edge="1" parent="1" source="aEt6CGPvdNkONzkS4FdT-122" target="aEt6CGPvdNkONzkS4FdT-12">
          <mxGeometry relative="1" as="geometry" />
        </mxCell>
        <mxCell id="aEt6CGPvdNkONzkS4FdT-124" value="" style="edgeStyle=orthogonalEdgeStyle;rounded=0;orthogonalLoop=1;jettySize=auto;html=1;" edge="1" parent="1" source="aEt6CGPvdNkONzkS4FdT-122" target="aEt6CGPvdNkONzkS4FdT-26">
          <mxGeometry relative="1" as="geometry" />
        </mxCell>
        <mxCell id="aEt6CGPvdNkONzkS4FdT-122" value="&lt;br&gt;&lt;span style=&quot;color: rgb(0, 0, 0); font-family: Helvetica; font-size: 12px; font-style: normal; font-variant-ligatures: normal; font-variant-caps: normal; font-weight: 400; letter-spacing: normal; orphans: 2; text-align: center; text-indent: 0px; text-transform: none; widows: 2; word-spacing: 0px; -webkit-text-stroke-width: 0px; white-space: normal; background-color: rgb(251, 251, 251); text-decoration-thickness: initial; text-decoration-style: initial; text-decoration-color: initial; display: inline !important; float: none;&quot;&gt;ADENOCARCINOMA&lt;/span&gt;&lt;div style=&quot;forced-color-adjust: none; color: rgb(0, 0, 0); font-family: Helvetica; font-size: 12px; font-style: normal; font-variant-ligatures: normal; font-variant-caps: normal; font-weight: 400; letter-spacing: normal; orphans: 2; text-align: center; text-indent: 0px; text-transform: none; widows: 2; word-spacing: 0px; -webkit-text-stroke-width: 0px; white-space: normal; background-color: rgb(251, 251, 251); text-decoration-thickness: initial; text-decoration-style: initial; text-decoration-color: initial;&quot;&gt;(non-small cell carcinoma)&lt;/div&gt;&lt;div&gt;&lt;br&gt;&lt;/div&gt;" style="rounded=0;whiteSpace=wrap;html=1;" vertex="1" parent="1">
          <mxGeometry x="1110" y="100" width="120" height="60" as="geometry" />
        </mxCell>
        <mxCell id="aEt6CGPvdNkONzkS4FdT-136" value="Diagnostics" style="rounded=0;whiteSpace=wrap;html=1;fillColor=#FF9933;" vertex="1" parent="1">
          <mxGeometry x="-590" y="310" width="120" height="40" as="geometry" />
        </mxCell>
        <mxCell id="aEt6CGPvdNkONzkS4FdT-138" value="CHEST XR:&lt;div&gt;+ left pleural effusion&lt;/div&gt;&lt;div&gt;+ small pneumothorax post thoracentesis&lt;/div&gt;&lt;div&gt;+hazy left lower lung&lt;br&gt;&lt;div&gt;09/13/24&lt;/div&gt;&lt;div&gt;&lt;br&gt;&lt;/div&gt;&lt;/div&gt;" style="rounded=1;whiteSpace=wrap;html=1;fillColor=#FF9933;" vertex="1" parent="1">
          <mxGeometry x="570" y="490" width="120" height="130" as="geometry" />
        </mxCell>
        <mxCell id="aEt6CGPvdNkONzkS4FdT-158" value="" style="edgeStyle=orthogonalEdgeStyle;rounded=0;orthogonalLoop=1;jettySize=auto;html=1;" edge="1" parent="1" source="aEt6CGPvdNkONzkS4FdT-139" target="aEt6CGPvdNkONzkS4FdT-148">
          <mxGeometry relative="1" as="geometry" />
        </mxCell>
        <mxCell id="aEt6CGPvdNkONzkS4FdT-139" value="CHEST XR:&lt;div&gt;moderate left pleural effusion&lt;/div&gt;&lt;div&gt;09/16/24&lt;/div&gt;" style="rounded=1;whiteSpace=wrap;html=1;fillColor=#FF9933;" vertex="1" parent="1">
          <mxGeometry x="850" y="490" width="120" height="60" as="geometry" />
        </mxCell>
        <mxCell id="aEt6CGPvdNkONzkS4FdT-143" value="Cl-: high due to CHF, lung cancer, SOB causing respiratory alkalosis&amp;nbsp;" style="rounded=1;whiteSpace=wrap;html=1;fillColor=#FF9933;" vertex="1" parent="1">
          <mxGeometry x="130" y="142.5" width="120" height="60" as="geometry" />
        </mxCell>
        <mxCell id="aEt6CGPvdNkONzkS4FdT-144" value="EKG: sinus rhythm&lt;div&gt;09/13/24&lt;/div&gt;" style="rounded=1;whiteSpace=wrap;html=1;fillColor=#FF9933;" vertex="1" parent="1">
          <mxGeometry x="-410" y="325" width="120" height="60" as="geometry" />
        </mxCell>
        <mxCell id="aEt6CGPvdNkONzkS4FdT-159" style="edgeStyle=orthogonalEdgeStyle;rounded=0;orthogonalLoop=1;jettySize=auto;html=1;exitX=0.5;exitY=1;exitDx=0;exitDy=0;entryX=0.5;entryY=0;entryDx=0;entryDy=0;" edge="1" parent="1" source="aEt6CGPvdNkONzkS4FdT-145" target="aEt6CGPvdNkONzkS4FdT-147">
          <mxGeometry relative="1" as="geometry" />
        </mxCell>
        <mxCell id="aEt6CGPvdNkONzkS4FdT-145" value="CHEST XR:&lt;div&gt;+pneumothorax&amp;nbsp;&lt;/div&gt;&lt;div&gt;09/14/24&lt;/div&gt;" style="rounded=1;whiteSpace=wrap;html=1;fillColor=#FF9933;" vertex="1" parent="1">
          <mxGeometry x="700" y="500" width="120" height="60" as="geometry" />
        </mxCell>
        <mxCell id="aEt6CGPvdNkONzkS4FdT-164" style="edgeStyle=orthogonalEdgeStyle;rounded=0;orthogonalLoop=1;jettySize=auto;html=1;exitX=0.5;exitY=1;exitDx=0;exitDy=0;entryX=0;entryY=0.75;entryDx=0;entryDy=0;" edge="1" parent="1" source="aEt6CGPvdNkONzkS4FdT-146" target="aEt6CGPvdNkONzkS4FdT-147">
          <mxGeometry relative="1" as="geometry" />
        </mxCell>
        <mxCell id="aEt6CGPvdNkONzkS4FdT-146" value="US:&lt;div&gt;pleural effusion&lt;/div&gt;&lt;div&gt;09/13/24&lt;/div&gt;" style="rounded=1;whiteSpace=wrap;html=1;fillColor=#FF9933;" vertex="1" parent="1">
          <mxGeometry x="480" y="670" width="120" height="60" as="geometry" />
        </mxCell>
        <mxCell id="aEt6CGPvdNkONzkS4FdT-214" value="" style="edgeStyle=orthogonalEdgeStyle;rounded=0;orthogonalLoop=1;jettySize=auto;html=1;" edge="1" parent="1" source="aEt6CGPvdNkONzkS4FdT-147" target="aEt6CGPvdNkONzkS4FdT-213">
          <mxGeometry relative="1" as="geometry" />
        </mxCell>
        <mxCell id="aEt6CGPvdNkONzkS4FdT-147" value="thoracentesis:&lt;div&gt;&lt;p style=&quot;margin-left:5.4pt&quot; class=&quot;TableParagraph&quot;&gt;&lt;span style=&quot;letter-spacing:&lt;br/&gt;-.1pt;mso-bidi-font-weight:bold&quot;&gt;09/13 thoracentesis, 1000 mL, POD 3&lt;/span&gt;&lt;/p&gt;&lt;p style=&quot;margin-left:5.4pt&quot; class=&quot;TableParagraph&quot;&gt;&lt;span style=&quot;letter-spacing:&lt;br/&gt;-.1pt;mso-bidi-font-weight:bold&quot;&gt;09/03 thoracentesis, 1200 mL, POD 13&lt;/span&gt;&lt;/p&gt;&lt;p style=&quot;margin-left:5.4pt&quot; class=&quot;TableParagraph&quot;&gt;&lt;span style=&quot;letter-spacing:&lt;br/&gt;-.1pt;mso-bidi-font-weight:bold&quot;&gt;08/07 thoracentesis, 1400 mL&lt;/span&gt;&lt;/p&gt;&lt;p style=&quot;margin-left:5.4pt&quot; class=&quot;TableParagraph&quot;&gt;&lt;span style=&quot;letter-spacing:&lt;br/&gt;-.1pt;mso-bidi-font-weight:bold&quot;&gt;May 2024 thoracentesis, 1200mL&lt;/span&gt;&lt;/p&gt;&lt;/div&gt;" style="rounded=1;whiteSpace=wrap;html=1;fillColor=#FFCCFF;" vertex="1" parent="1">
          <mxGeometry x="620" y="660" width="230" height="140" as="geometry" />
        </mxCell>
        <mxCell id="aEt6CGPvdNkONzkS4FdT-148" value="tunneled intrapleural catheter" style="rounded=1;whiteSpace=wrap;html=1;fillColor=#FFCCFF;" vertex="1" parent="1">
          <mxGeometry x="800" y="575" width="120" height="60" as="geometry" />
        </mxCell>
        <mxCell id="aEt6CGPvdNkONzkS4FdT-163" style="edgeStyle=orthogonalEdgeStyle;rounded=0;orthogonalLoop=1;jettySize=auto;html=1;exitX=1;exitY=0.75;exitDx=0;exitDy=0;entryX=0.356;entryY=-0.019;entryDx=0;entryDy=0;entryPerimeter=0;" edge="1" parent="1" source="aEt6CGPvdNkONzkS4FdT-138" target="aEt6CGPvdNkONzkS4FdT-147">
          <mxGeometry relative="1" as="geometry" />
        </mxCell>
        <mxCell id="aEt6CGPvdNkONzkS4FdT-168" style="edgeStyle=orthogonalEdgeStyle;rounded=0;orthogonalLoop=1;jettySize=auto;html=1;exitX=0;exitY=0.25;exitDx=0;exitDy=0;entryX=0.403;entryY=0.005;entryDx=0;entryDy=0;entryPerimeter=0;" edge="1" parent="1" source="aEt6CGPvdNkONzkS4FdT-79" target="aEt6CGPvdNkONzkS4FdT-54">
          <mxGeometry relative="1" as="geometry" />
        </mxCell>
        <mxCell id="aEt6CGPvdNkONzkS4FdT-169" style="edgeStyle=orthogonalEdgeStyle;rounded=0;orthogonalLoop=1;jettySize=auto;html=1;exitX=0;exitY=0.5;exitDx=0;exitDy=0;entryX=0.847;entryY=0.052;entryDx=0;entryDy=0;entryPerimeter=0;" edge="1" parent="1" source="aEt6CGPvdNkONzkS4FdT-79" target="aEt6CGPvdNkONzkS4FdT-101">
          <mxGeometry relative="1" as="geometry" />
        </mxCell>
        <mxCell id="aEt6CGPvdNkONzkS4FdT-189" value="" style="edgeStyle=orthogonalEdgeStyle;rounded=0;orthogonalLoop=1;jettySize=auto;html=1;" edge="1" parent="1" source="aEt6CGPvdNkONzkS4FdT-172" target="aEt6CGPvdNkONzkS4FdT-145">
          <mxGeometry relative="1" as="geometry" />
        </mxCell>
        <mxCell id="aEt6CGPvdNkONzkS4FdT-191" style="edgeStyle=orthogonalEdgeStyle;rounded=0;orthogonalLoop=1;jettySize=auto;html=1;exitX=0.25;exitY=1;exitDx=0;exitDy=0;entryX=0.25;entryY=0;entryDx=0;entryDy=0;" edge="1" parent="1" source="aEt6CGPvdNkONzkS4FdT-172" target="aEt6CGPvdNkONzkS4FdT-138">
          <mxGeometry relative="1" as="geometry" />
        </mxCell>
        <mxCell id="aEt6CGPvdNkONzkS4FdT-199" style="edgeStyle=orthogonalEdgeStyle;rounded=0;orthogonalLoop=1;jettySize=auto;html=1;exitX=0;exitY=0.75;exitDx=0;exitDy=0;" edge="1" parent="1" source="aEt6CGPvdNkONzkS4FdT-172" target="aEt6CGPvdNkONzkS4FdT-194">
          <mxGeometry relative="1" as="geometry" />
        </mxCell>
        <mxCell id="aEt6CGPvdNkONzkS4FdT-172" value="pulmonary edema,&lt;div&gt;blood clots,&amp;nbsp;&lt;/div&gt;&lt;div&gt;pneumothorax&lt;/div&gt;" style="rounded=1;whiteSpace=wrap;html=1;fillColor=#FFCCFF;" vertex="1" parent="1">
          <mxGeometry x="680" y="395" width="120" height="60" as="geometry" />
        </mxCell>
        <mxCell id="aEt6CGPvdNkONzkS4FdT-183" style="edgeStyle=orthogonalEdgeStyle;rounded=0;orthogonalLoop=1;jettySize=auto;html=1;exitX=0.5;exitY=1;exitDx=0;exitDy=0;entryX=0.328;entryY=0.078;entryDx=0;entryDy=0;entryPerimeter=0;" edge="1" parent="1" source="aEt6CGPvdNkONzkS4FdT-70" target="aEt6CGPvdNkONzkS4FdT-172">
          <mxGeometry relative="1" as="geometry" />
        </mxCell>
        <mxCell id="aEt6CGPvdNkONzkS4FdT-192" style="edgeStyle=orthogonalEdgeStyle;rounded=0;orthogonalLoop=1;jettySize=auto;html=1;exitX=0.75;exitY=1;exitDx=0;exitDy=0;entryX=0.65;entryY=-0.017;entryDx=0;entryDy=0;entryPerimeter=0;" edge="1" parent="1" source="aEt6CGPvdNkONzkS4FdT-172" target="aEt6CGPvdNkONzkS4FdT-139">
          <mxGeometry relative="1" as="geometry" />
        </mxCell>
        <mxCell id="aEt6CGPvdNkONzkS4FdT-204" value="" style="edgeStyle=orthogonalEdgeStyle;rounded=0;orthogonalLoop=1;jettySize=auto;html=1;" edge="1" parent="1" source="aEt6CGPvdNkONzkS4FdT-193" target="aEt6CGPvdNkONzkS4FdT-203">
          <mxGeometry relative="1" as="geometry" />
        </mxCell>
        <mxCell id="aEt6CGPvdNkONzkS4FdT-193" value="s/s: cough, SOB, CP, shallow respirations, S3 heart sounds" style="rounded=1;whiteSpace=wrap;html=1;fillColor=#F19C99;" vertex="1" parent="1">
          <mxGeometry x="830" y="-10" width="120" height="60" as="geometry" />
        </mxCell>
        <mxCell id="aEt6CGPvdNkONzkS4FdT-200" value="" style="edgeStyle=orthogonalEdgeStyle;rounded=0;orthogonalLoop=1;jettySize=auto;html=1;" edge="1" parent="1" source="aEt6CGPvdNkONzkS4FdT-194" target="aEt6CGPvdNkONzkS4FdT-195">
          <mxGeometry relative="1" as="geometry" />
        </mxCell>
        <mxCell id="aEt6CGPvdNkONzkS4FdT-201" value="" style="edgeStyle=orthogonalEdgeStyle;rounded=0;orthogonalLoop=1;jettySize=auto;html=1;" edge="1" parent="1" source="aEt6CGPvdNkONzkS4FdT-194" target="aEt6CGPvdNkONzkS4FdT-196">
          <mxGeometry relative="1" as="geometry" />
        </mxCell>
        <mxCell id="aEt6CGPvdNkONzkS4FdT-194" value="DVT RLE" style="rounded=1;whiteSpace=wrap;html=1;fillColor=#FFCCFF;" vertex="1" parent="1">
          <mxGeometry x="365" y="450" width="120" height="30" as="geometry" />
        </mxCell>
        <mxCell id="aEt6CGPvdNkONzkS4FdT-195" value="Eliquis at home for prophylaxis" style="rounded=1;whiteSpace=wrap;html=1;fillColor=#B266FF;" vertex="1" parent="1">
          <mxGeometry x="365" y="505" width="120" height="30" as="geometry" />
        </mxCell>
        <mxCell id="aEt6CGPvdNkONzkS4FdT-196" value="Heparin drip at hospital&lt;div&gt;&lt;p style=&quot;margin-top:.2pt;margin-right:0in;margin-bottom:&lt;br/&gt;0in;margin-left:5.45pt;margin-bottom:.0001pt&quot; class=&quot;TableParagraph&quot;&gt;&lt;span style=&quot;font-size:10.0pt&quot;&gt;25,000&lt;br/&gt;units in 250mL ½ NS infusion&lt;/span&gt;&lt;/p&gt;&lt;/div&gt;" style="rounded=1;whiteSpace=wrap;html=1;fillColor=#B266FF;" vertex="1" parent="1">
          <mxGeometry x="210" y="425" width="120" height="80" as="geometry" />
        </mxCell>
        <mxCell id="aEt6CGPvdNkONzkS4FdT-211" style="edgeStyle=orthogonalEdgeStyle;rounded=0;orthogonalLoop=1;jettySize=auto;html=1;exitX=1;exitY=0.5;exitDx=0;exitDy=0;entryX=0;entryY=0.5;entryDx=0;entryDy=0;" edge="1" parent="1" source="aEt6CGPvdNkONzkS4FdT-203" target="aEt6CGPvdNkONzkS4FdT-205">
          <mxGeometry relative="1" as="geometry" />
        </mxCell>
        <mxCell id="aEt6CGPvdNkONzkS4FdT-203" value="O2 administer @ 2LPM via NC" style="rounded=1;whiteSpace=wrap;html=1;fillColor=#B266FF;" vertex="1" parent="1">
          <mxGeometry x="980" y="-10" width="120" height="60" as="geometry" />
        </mxCell>
        <mxCell id="aEt6CGPvdNkONzkS4FdT-205" value="Problem #2" style="rounded=0;whiteSpace=wrap;html=1;fillColor=#006600;" vertex="1" parent="1">
          <mxGeometry x="1155" y="-10" width="120" height="60" as="geometry" />
        </mxCell>
        <mxCell id="aEt6CGPvdNkONzkS4FdT-206" value="Problem Statement #1, #2" style="rounded=0;whiteSpace=wrap;html=1;fillColor=#006600;" vertex="1" parent="1">
          <mxGeometry x="-470" y="445" width="120" height="60" as="geometry" />
        </mxCell>
        <mxCell id="aEt6CGPvdNkONzkS4FdT-207" value="Problem #1" style="rounded=0;whiteSpace=wrap;html=1;fillColor=#006600;" vertex="1" parent="1">
          <mxGeometry x="-530" y="860" width="120" height="60" as="geometry" />
        </mxCell>
        <mxCell id="aEt6CGPvdNkONzkS4FdT-208" style="edgeStyle=orthogonalEdgeStyle;rounded=0;orthogonalLoop=1;jettySize=auto;html=1;exitX=0.25;exitY=1;exitDx=0;exitDy=0;entryX=0.321;entryY=0.015;entryDx=0;entryDy=0;entryPerimeter=0;" edge="1" parent="1" source="aEt6CGPvdNkONzkS4FdT-54" target="aEt6CGPvdNkONzkS4FdT-206">
          <mxGeometry relative="1" as="geometry" />
        </mxCell>
        <mxCell id="aEt6CGPvdNkONzkS4FdT-209" value="Problem Statement #1, #2" style="rounded=0;whiteSpace=wrap;html=1;fillColor=#006600;" vertex="1" parent="1">
          <mxGeometry x="460" y="-10" width="120" height="60" as="geometry" />
        </mxCell>
        <mxCell id="aEt6CGPvdNkONzkS4FdT-213" value="Problem #4, #5" style="rounded=0;whiteSpace=wrap;html=1;fillColor=#006600;" vertex="1" parent="1">
          <mxGeometry x="900" y="710" width="120" height="60" as="geometry" />
        </mxCell>
        <mxCell id="aEt6CGPvdNkONzkS4FdT-216" style="edgeStyle=orthogonalEdgeStyle;rounded=0;orthogonalLoop=1;jettySize=auto;html=1;exitX=0.75;exitY=1;exitDx=0;exitDy=0;entryX=0.382;entryY=0.039;entryDx=0;entryDy=0;entryPerimeter=0;" edge="1" parent="1" source="aEt6CGPvdNkONzkS4FdT-148" target="aEt6CGPvdNkONzkS4FdT-213">
          <mxGeometry relative="1" as="geometry" />
        </mxCell>
      </root>
    </mxGraphModel>
  </diagram>
</mxfile>
